Patient4_TMGait_0pt6_01_right_34_EMG.mot
version=1
nRows=36
nColumns=33
inDegrees=no
endheader
time	1LAddLong	2LGlutMax	3LGlutMed	4LIliopsoas	5LSemiMemb	6LBicFemLong	7LRecFem	8LVastMed	9LVastLat	10LGasMed	11LTibAnt	12lTibPost	13LPeroneusLong	14LSol	15LExtDigLong	16LFlexDigLong	17RAddLong	18RGlutMax	19RGlutMed	20RIliopsoas	21RSemiMemb	22RBicFemLong	23RRecFem	24RVastMed	25RVastLat	26RGasMed	27RTibAnt	28RTibPost	29RPeroneusLong	30RSol	31RExtDigLong	32RFlexDigLong
40.81	0.010529	-0.11978	0.22446	0.014191	0.009155	-0.1329	0.055389	0.015717	-0.034637	-0.044861	-0.007782	0.005341	0.048523	-0.065002	-0.1828	0.010376	0.12238	-0.11856	0.22095	-0.12253	-0.047302	0.035706	0.033264	-0.18295	-0.069122	0.011139	0.40314	0.003204	0.20966	-0.1593	-0.005493	0.010071
40.811	0.014496	-0.097656	0.26611	0.029297	0.016479	-0.085144	-0.002899	0.010223	-0.063324	0.021973	0.016022	0.007629	0.060883	0.04776	-0.16495	0.00885	0.037842	-0.20142	0.17868	-0.003052	-0.041656	0.033264	-0.001831	-0.10544	-0.06134	0.026855	-0.21866	0.012054	-0.37567	-0.16953	-0.003204	0.002136
40.812	0.015411	-0.17197	0.25787	0.006561	0.08255	-0.023651	0.027618	0.007172	-0.11612	0.017395	0.017853	0.013275	-0.16022	-0.12634	-0.23682	0.00885	-0.038147	-0.18082	0.073395	0.14252	-0.036316	0.039215	-0.061188	0.000153	-0.033417	0.024414	-0.37521	0.00351	-0.69961	-0.1091	-0.007019	-0.000458
40.813	0.014954	-0.17319	0.15701	0.033112	0.090332	0.010071	0.002594	0.018158	-0.12299	0.006409	0.022278	0.019379	-0.074463	-0.4567	-0.21027	0.004578	-0.097046	-0.19089	0.001831	0.19959	-0.033722	0.04425	-0.19836	-0.060577	-0.011292	0.010071	-0.016785	0.004425	-0.21957	-0.086517	-0.001526	0.007782
40.814	0.017395	-0.15274	0.23605	0.043945	0.089264	0.007019	-0.05188	0.020142	-0.03067	0.026093	-0.041046	0.023651	0.10071	-0.48309	-0.15915	-0.002899	-0.12314	-0.16449	0.028229	0.22888	-0.032501	0.048828	-0.2562	0.017395	-0.001984	0.001831	-0.19882	-0.001221	0.063629	0.035095	-0.002594	-0.001831
40.815	0.021667	-0.090027	0.28915	0.00473	0.067749	0.11383	-0.066376	0.003967	0.10056	0.1474	-0.060883	0.014191	0.26947	-0.42343	-0.21713	-0.018005	-0.11017	-0.1767	0.30792	0.19989	-0.013123	0.034332	-0.15671	0.049438	-0.003052	-0.001831	-0.19959	0.001221	0.22278	0.040894	-0.000916	-0.006409
40.816	0.028381	-0.1622	0.11536	0.002594	0.043335	0.19134	0.010529	-0.002441	0.12268	0.17288	-0.029602	0.015717	0.42862	-0.177	-0.32867	-0.003662	-0.065002	-0.18234	0.38116	0.061646	-0.013428	0.028076	-0.022736	0.037689	-0.001678	-0.002136	-0.10864	0.001984	0.36774	0.003204	-0.00473	-0.007019
40.817	0.016785	-0.12024	0.15274	0.011749	0.036774	0.18723	0.032959	-0.002289	0.14221	0.049438	0.001373	0.015259	0.26337	-0.069733	-0.43015	-0.005341	-0.008545	-0.1442	0.15259	0.004578	-0.015106	0.016327	-0.079193	0.008392	-0.004272	-0.00061	-0.19196	0.000763	0.39932	-0.011902	-0.002136	-0.006714
40.818	0.027466	-0.12894	0.1297	0.014496	0.015717	0.14008	-0.021515	-0.012665	0.26871	-0.073242	0.10757	0.010071	-0.085907	0.052185	-0.34912	0.010223	-0.00824	-0.12848	0.20432	0.036316	-0.011444	0	-0.1622	-0.005493	-0.001221	0.002899	-0.2655	-0.001221	0.26276	-0.061035	-0.003052	0.006866
40.819	0.016022	-0.090485	0.006256	-0.003052	-0.006409	0.11231	0.021362	-0.025635	0.20355	-0.099335	0.049286	0.018768	-0.37262	0.12131	-0.24506	0.001984	0.000763	-0.18356	0.22278	0.014191	-0.014343	-0.00885	0.025635	-0.002899	-0.001526	0.00351	-0.67719	0.002289	0.19577	-0.093231	-0.006714	0.002136
40.82	0.01709	-0.082245	-0.02182	0.000916	0.028992	0.081787	0.07309	-0.009766	-0.009155	-0.20676	-0.1152	0.010223	-0.1329	0.03952	-0.12741	0.010223	0.019531	-0.15686	0.63767	-0.05127	-0.014343	-0.016479	0.2182	0.035553	-0.004578	0.007935	-0.93643	0.001984	0.16296	-0.17532	-0.007477	0.008087
40.821	0.008545	-0.00351	0.059509	0.004272	0.024414	0.076141	0.066986	-0.002899	-0.17548	-0.17288	0.082092	0.014648	-0.49652	-0.038452	0.11581	-0.002441	0.009155	-0.084686	0.60715	-0.008545	-0.0354	-0.045929	0.14954	0.057678	-0.01297	0.012665	-0.098267	0.001831	0.097504	-0.21057	-0.002136	0.00885
40.822	0.014801	0.022278	0.32318	-0.010071	0.003357	0.022125	0.065765	-0.00885	-0.27405	-0.10712	0.18662	0.016937	-0.48782	-0.026855	0.19928	-0.011902	-0.050354	-0.052185	0.1619	-0.004425	-0.0383	-0.006409	0.088348	0.073242	0.011597	0.007629	0.59799	0.002747	0.010071	-0.065765	-0.00061	-0.002594
40.823	0.014038	0.050201	0.13428	-0.009613	0.007935	-0.065155	0.070648	-0.003662	-0.16342	-0.095367	0.19547	0.00061	-0.076141	0.20813	0.035248	-0.011444	-0.10712	-0.080566	-0.052338	-0.005341	-0.029449	0.02182	0.041962	0.058136	0.014496	-0.003357	0.63705	0.000153	-0.20142	0.16617	-0.001678	-0.005646
40.824	0.024872	0.033264	0.028687	0.015106	0.025635	-0.10757	0.077667	-0.009155	-0.074005	-0.10361	0.081329	0.001526	0.1915	0.34302	-0.095062	0.001221	-0.076599	-0.071564	0.030518	0.003052	-0.027161	0.062561	0.016174	0.025177	0.006256	-0.016632	0.053558	-0.00412	-0.25421	0.26398	0.005341	0.002747
40.825	0.017853	0.096741	0.072327	-0.005341	0.04715	-0.014191	0.057068	-0.010529	-0.028534	0.026245	-0.074921	0.001068	0.059509	0.298	-0.018616	0.012207	-0.049438	-0.020447	0.022736	0.018921	-0.020752	0.037231	0.006866	0.006714	-0.027924	-0.018768	-0.73791	-0.001373	-0.13199	0.24612	-0.00412	0.000458
40.826	0.008392	0.079193	0.10117	0.011292	0.027466	0.062866	0.062103	-0.009613	-0.049591	0.077667	-0.11597	0.007172	0.027313	0.19898	0.24475	0.01358	-0.02533	-0.044556	-0.14603	0.023499	0.00946	0.054474	0.088959	-0.029602	-0.018921	-0.020294	-0.84137	-0.002289	-0.01709	0.15518	-0.002289	-0.000916
40.827	0.003357	0.059509	0.030975	0.005341	0.014954	0.045319	0.049286	0.001526	-0.042572	0.061646	-0.11139	0.005035	0.024567	0.22385	-0.15381	-0.012817	-0.022583	-0.083618	-0.25406	0.015869	0.040283	0.040894	-0.015106	-0.005035	0.011902	-0.017395	-0.34195	0.002136	-0.029144	0.080414	-0.000763	-0.005341
40.828	0.023041	0.09491	-0.008392	0.012665	0.019684	-0.033875	0.085602	0.00061	-0.040894	0.016022	-0.15793	0.007019	-0.15579	0.27344	0.019531	-0.031586	-0.01297	-0.095825	-0.067444	0.033569	0.003815	0.011902	-0.007629	-0.029602	0.046844	-0.007477	0.098877	0.00061	0.19943	-0.037537	0.005188	-0.004883
40.829	0.028229	0.10544	0.080872	0.012512	0.015259	-0.054779	0.074615	-0.00473	-0.086212	-0.023651	-0.13779	0.00885	-0.079346	0.26642	-0.27008	-0.014038	-0.018768	-0.11887	-0.027924	0.024261	-0.17639	0.010681	0.086212	0.019379	0.036316	0.001068	0.62958	0.000763	0.75882	-0.093689	0.000153	0.003357
40.83	0.002594	0.10117	0.00885	0.018005	0.008545	-0.036774	0.12329	0.000763	-0.14145	-0.018311	-0.041809	-0.000916	-0.13992	0.20889	-0.19821	0.010071	-0.033417	-0.084534	-0.096588	0.044098	-0.31311	0.07431	0.17868	0.015717	0.021362	-0.014801	0.90073	0.002289	0.42496	-0.093842	-0.003815	-0.008392
40.831	0.023499	0.098267	0.002594	-0.005646	0.013428	-0.036163	0.072327	0.008392	-0.15167	0.032959	0.048828	-0.00061	0.41901	0.081482	0.0383	0.011444	-0.054169	-0.062256	-0.1387	0.012817	-0.1236	0.039368	0.2478	-0.063019	0.004425	-0.027313	0.83527	-0.004425	-0.005035	-0.093231	-0.004272	-0.006561
40.832	0.027924	0.087738	-0.16892	0.001678	0.023651	-0.02533	-0.004425	0	-0.11841	0.08728	0.12268	-0.001984	0.75333	-0.002594	-0.15457	-0.009613	-0.035553	-0.070496	-0.20355	0	0.13153	-0.007629	0.28885	-0.11002	-0.022888	-0.019989	0.33646	0.001373	-0.14679	-0.16357	-0.010223	-0.005188
40.833	0.011292	0.06012	-0.24719	0.007019	0.013123	-0.01236	-0.020447	0.005951	-0.078125	0.069122	0.13153	-0.013123	0.58121	0.037994	-0.24429	-0.008545	-0.029297	-0.076752	0.07843	0.028839	0.13184	-0.001678	0.19257	-0.16037	-0.031586	-0.001984	-0.47867	0.001831	-0.11246	-0.22217	-0.002441	0.002136
40.834	0.022583	0.11383	-0.059509	-0.001221	0.016632	-0.011139	-0.029449	0.020752	-0.054321	0.00412	0.083466	-0.010071	0.15289	0.14221	-0.16937	0.00351	-0.017548	0.005341	0.084991	-0.020142	0.033569	0.005646	0.4187	-0.17914	-0.022583	0.029297	-0.48569	0.000763	-0.09491	-0.24826	-0.003967	0.001068
40.835	0.026703	0.08728	0.032501	-0.020905	0.022278	-0.053253	-0.047302	-0.005646	0.025024	-0.005035	0.045319	-0.006256	-0.30991	0.11551	-0.21133	0.012512	0.091095	0.012817	-0.060272	-0.028992	-0.007324	-0.019531	0.55649	-0.16281	-0.017548	0.035553	0.51819	-0.004578	0.18341	-0.14999	0.000458	0.008087
40.836	0.005951	0.048218	0.26337	-0.017853	0.01236	-0.037384	-0.013428	-0.013275	0.029907	0.037231	0.041656	-0.014954	-0.66605	-0.008545	-0.080414	-0.002136	0.095825	-0.031281	-0.10452	-0.010986	-0.023804	-0.055389	0.69153	-0.20645	-0.034332	0.01709	0.37247	0.000763	0.16892	0.04425	-0.005646	0.002899
40.837	0.006714	-0.024719	0.35873	-0.018005	-0.002441	0.031281	0.054474	-0.007172	-0.021057	0.061951	0.095978	-0.007935	-0.30838	-0.14267	0.028687	0.006714	0.030365	-0.020905	-0.16693	-0.032959	-0.016632	-0.053558	0.52353	-0.18753	-0.047913	-0.008392	0.34409	0	-0.005035	0.16037	-0.003967	-0.000916
40.838	0.010071	-0.042114	0.19486	-0.013428	0.001526	0.014191	-0.017242	0.012207	-0.037079	0.010681	0.053253	-0.016174	0.17929	-0.10223	-0.084076	0.004425	-0.028534	0.003662	-0.047913	0.05188	-0.021973	-0.051727	0.33142	-0.12436	-0.0383	-0.009918	0.14679	-0.003052	-0.12558	0.13321	-0.003967	-0.002747
40.839	0.022278	-0.041809	0.25757	0.001678	0.016174	-0.064087	-0.028534	-0.003967	-0.08606	-0.018921	0.024719	-0.020599	0.14832	-0.041962	-0.16083	-0.007019	-0.061188	-0.017242	-0.13031	0.069275	-0.036469	-0.056915	0.24323	-0.12802	-0.026398	-0.008087	0.11978	-0.005646	-0.00885	0.10712	-0.004272	-0.003815
40.84	0.041656	-0.016479	0.20096	-0.011139	0.023651	-0.054321	-0.004425	-0.010071	-0.17868	-0.080109	-0.000153	-0.006561	-0.23422	0.072784	-0.066071	-0.007019	-0.066528	-0.029449	-0.13046	0.037079	-0.062866	-0.058746	0.14481	-0.12985	-0.026245	-0.013733	0.32333	-0.001526	0.058594	0.15472	-0.005035	-0.00061
40.841	0.10651	-0.047455	0.09903	0.010376	0.023651	-0.026398	-0.049286	0.00061	-0.18677	-0.1207	0.010529	-0.02121	-0.10513	0.005951	0.12177	0.005798	-0.046844	0.028534	0.46112	-0.008392	-0.097046	-0.028687	0.006714	-0.13748	-0.024719	-0.015564	0.58319	-0.000305	0.068359	0.16388	-0.003357	-0.003967
40.842	-0.017853	-0.072937	0.04364	0.010834	0.018921	0.013428	-0.044098	0.000458	-0.10101	-0.10864	0.017548	-0.007019	0.040588	-0.04837	0.089569	0.005341	-0.016632	-0.041809	0.33112	0.012207	-0.082092	-0.029907	-0.13626	-0.11932	-0.007629	-0.007324	0.33417	-0.001373	-0.43762	0.10605	-0.002899	0.001526
40.843	0.04303	-0.06073	0.068512	0.031128	-0.006714	0.021973	0.005646	-0.002289	-0.10361	-0.023499	0.008087	-0.021667	1.3457	0.12711	0.17151	0.003052	0.024261	-0.061951	0.091248	0.0383	-0.098419	-0.026855	-0.30212	-0.10468	-0.02243	0.00473	0.16113	0.002441	-0.43472	-0.029297	-0.002441	0.00351
40.844	0.034485	-0.077667	0.016632	0.024261	0.005188	-0.10056	0.002136	0.002289	-0.098114	0.05722	-0.003815	-0.017242	1.1952	0.31403	0.33356	0.005951	0.050964	-0.071716	-0.059662	0.011749	-0.090027	-0.046539	-0.36819	-0.12619	-0.004883	0.006866	-0.0737	-0.000153	-0.31723	-0.016174	-0.003204	0.000305
40.845	0.009003	-0.067444	-0.097809	0.02594	0.015106	-0.14465	0.000458	-0.00824	-0.052795	0.17975	0.024567	-0.001068	-0.66223	0.10696	0.23102	-0.022125	0.043945	-0.056152	-0.42496	-0.009003	-0.03479	-0.047302	-0.49484	-0.094299	0.019226	0.000916	-0.19287	-0.001526	-0.15167	0.065613	-0.000458	0.000153
